<?xml version="1.0" encoding="UTF-8" standalone="no"?>
<!-- Created with Inkscape (http://www.inkscape.org/) -->

<svg
   xmlns:dc="http://purl.org/dc/elements/1.1/"
   xmlns:cc="http://creativecommons.org/ns#"
   xmlns:rdf="http://www.w3.org/1999/02/22-rdf-syntax-ns#"
   xmlns:svg="http://www.w3.org/2000/svg"
   xmlns="http://www.w3.org/2000/svg"
   xmlns:sodipodi="http://sodipodi.sourceforge.net/DTD/sodipodi-0.dtd"
   xmlns:inkscape="http://www.inkscape.org/namespaces/inkscape"
   id="svg3004"
   version="1.1"
   inkscape:version="0.48.4 r9939"
   width="900"
   height="270"
   xml:space="preserve"
   sodipodi:docname="freqProfileMotivation.pdf"><metadata
     id="metadata3010"><rdf:RDF><cc:Work
         rdf:about=""><dc:format>image/svg+xml</dc:format><dc:type
           rdf:resource="http://purl.org/dc/dcmitype/StillImage" /><dc:title></dc:title></cc:Work></rdf:RDF></metadata><defs
     id="defs3008"><clipPath
       clipPathUnits="userSpaceOnUse"
       id="clipPath3050"><path
         d="m 40.77,34.33 673.25,0 0,175.7 -673.25,0 0,-175.7 z"
         id="path3052" /></clipPath></defs><sodipodi:namedview
     pagecolor="#ffffff"
     bordercolor="#666666"
     borderopacity="1"
     objecttolerance="10"
     gridtolerance="10"
     guidetolerance="10"
     inkscape:pageopacity="0"
     inkscape:pageshadow="2"
     inkscape:window-width="1855"
     inkscape:window-height="1056"
     id="namedview3006"
     showgrid="false"
     inkscape:zoom="1.3466456"
     inkscape:cx="327.19367"
     inkscape:cy="57.540843"
     inkscape:window-x="65"
     inkscape:window-y="24"
     inkscape:window-maximized="1"
     inkscape:current-layer="g3012" /><g
     id="g3012"
     inkscape:groupmode="layer"
     inkscape:label="freqProfileMotivation"
     transform="matrix(1.25,0,0,-1.25,0,270)"><g
       id="g3018" /><g
       id="g3020" /><g
       id="g3022" /><g
       id="g3024" /><g
       id="g3026" /><g
       id="g3028" /><g
       id="g3030" /><g
       id="g3032" /><g
       id="g3034" /><g
       id="g3040" /><g
       id="g3042" /><g
       id="g3044" /><g
       id="g3174" /><g
       id="g3176" /><g
       id="g3178" /><g
       id="g3180" /><g
       id="g3182" /><g
       id="g3242" /><g
       id="g3274" /><g
       id="g3276" /><g
       id="g3278" /><g
       id="g3280" /><g
       id="g3282" /><g
       id="g3284" /><g
       id="g3286" /><g
       id="g3316" /><g
       id="g3372" /><g
       id="g3374" /><g
       id="g3376" /><g
       id="g3384" /><g
       id="g3392" /><g
       id="g3394" /><g
       id="g3396" /><g
       id="g3402" /><g
       id="g3410" /><g
       id="g3416" /><g
       id="g3422" /><g
       id="g3428" /><g
       id="g3434" /><g
       id="g3442" /><g
       id="g3470"><g
         id="g3014"><path
           id="path3016"
           style="fill:#ffffff;fill-opacity:1;fill-rule:nonzero;stroke:none"
           d="M 0,0 720,0 720,216 0,216 0,0 z" /></g><g
         id="g3036"><path
           id="path3038"
           style="fill:#ffffff;fill-opacity:1;fill-rule:nonzero;stroke:#ffffff;stroke-opacity:1;stroke-width:1.07;stroke-linecap:round;stroke-linejoin:round;stroke-miterlimit:10;stroke-dasharray:none"
           d="M 0,0 720,0 720,216 0,216 0,0 z" /></g><g
         id="g3046"><g
           clip-path="url(#clipPath3050)"
           id="g3048"><path
             id="path3054"
             style="fill:#ffffff;fill-opacity:1;fill-rule:nonzero;stroke:none"
             d="m 40.77,34.33 673.25,0 0,175.7 -673.25,0 0,-175.7 z" /><path
             id="path3056"
             style="fill:none;stroke:#fafafa;stroke-opacity:1;stroke-width:1.07;stroke-linecap:butt;stroke-linejoin:round;stroke-miterlimit:10;stroke-dasharray:none"
             d="m 40.77,37.13 673.25,0" /><path
             id="path3058"
             style="fill:none;stroke:#fafafa;stroke-opacity:1;stroke-width:1.07;stroke-linecap:butt;stroke-linejoin:round;stroke-miterlimit:10;stroke-dasharray:none"
             d="m 40.77,47.49 673.25,0" /><path
             id="path3060"
             style="fill:none;stroke:#fafafa;stroke-opacity:1;stroke-width:1.07;stroke-linecap:butt;stroke-linejoin:round;stroke-miterlimit:10;stroke-dasharray:none"
             d="m 40.77,62.6 673.25,0" /><path
             id="path3062"
             style="fill:none;stroke:#fafafa;stroke-opacity:1;stroke-width:1.07;stroke-linecap:butt;stroke-linejoin:round;stroke-miterlimit:10;stroke-dasharray:none"
             d="m 40.77,75.98 673.25,0" /><path
             id="path3064"
             style="fill:none;stroke:#fafafa;stroke-opacity:1;stroke-width:1.07;stroke-linecap:butt;stroke-linejoin:round;stroke-miterlimit:10;stroke-dasharray:none"
             d="m 40.77,85.9 673.25,0" /><path
             id="path3066"
             style="fill:none;stroke:#fafafa;stroke-opacity:1;stroke-width:1.07;stroke-linecap:butt;stroke-linejoin:round;stroke-miterlimit:10;stroke-dasharray:none"
             d="m 40.77,95.83 673.25,0" /><path
             id="path3068"
             style="fill:none;stroke:#fafafa;stroke-opacity:1;stroke-width:1.07;stroke-linecap:butt;stroke-linejoin:round;stroke-miterlimit:10;stroke-dasharray:none"
             d="m 40.77,102.74 673.25,0" /><path
             id="path3070"
             style="fill:none;stroke:#fafafa;stroke-opacity:1;stroke-width:1.07;stroke-linecap:butt;stroke-linejoin:round;stroke-miterlimit:10;stroke-dasharray:none"
             d="m 40.77,112.66 673.25,0" /><path
             id="path3072"
             style="fill:none;stroke:#fafafa;stroke-opacity:1;stroke-width:1.07;stroke-linecap:butt;stroke-linejoin:round;stroke-miterlimit:10;stroke-dasharray:none"
             d="m 40.77,122.59 673.25,0" /><path
             id="path3074"
             style="fill:none;stroke:#fafafa;stroke-opacity:1;stroke-width:1.07;stroke-linecap:butt;stroke-linejoin:round;stroke-miterlimit:10;stroke-dasharray:none"
             d="m 40.77,135.97 673.25,0" /><path
             id="path3076"
             style="fill:none;stroke:#fafafa;stroke-opacity:1;stroke-width:1.07;stroke-linecap:butt;stroke-linejoin:round;stroke-miterlimit:10;stroke-dasharray:none"
             d="m 40.77,148.92 673.25,0" /><path
             id="path3078"
             style="fill:none;stroke:#fafafa;stroke-opacity:1;stroke-width:1.07;stroke-linecap:butt;stroke-linejoin:round;stroke-miterlimit:10;stroke-dasharray:none"
             d="m 40.77,158.84 673.25,0" /><path
             id="path3080"
             style="fill:none;stroke:#fafafa;stroke-opacity:1;stroke-width:1.07;stroke-linecap:butt;stroke-linejoin:round;stroke-miterlimit:10;stroke-dasharray:none"
             d="m 40.77,175.67 673.25,0" /><path
             id="path3082"
             style="fill:none;stroke:#fafafa;stroke-opacity:1;stroke-width:1.07;stroke-linecap:butt;stroke-linejoin:round;stroke-miterlimit:10;stroke-dasharray:none"
             d="m 40.77,193.8 673.25,0" /><path
             id="path3084"
             style="fill:none;stroke:#fafafa;stroke-opacity:1;stroke-width:1.07;stroke-linecap:butt;stroke-linejoin:round;stroke-miterlimit:10;stroke-dasharray:none"
             d="m 40.77,207.18 673.25,0" /><path
             id="path3086"
             style="fill:none;stroke:#fafafa;stroke-opacity:1;stroke-width:1.07;stroke-linecap:butt;stroke-linejoin:round;stroke-miterlimit:10;stroke-dasharray:none"
             d="m 84.7,34.33 0,175.69" /><path
             id="path3088"
             style="fill:none;stroke:#fafafa;stroke-opacity:1;stroke-width:1.07;stroke-linecap:butt;stroke-linejoin:round;stroke-miterlimit:10;stroke-dasharray:none"
             d="m 133.53,34.33 0,175.69" /><path
             id="path3090"
             style="fill:none;stroke:#fafafa;stroke-opacity:1;stroke-width:1.07;stroke-linecap:butt;stroke-linejoin:round;stroke-miterlimit:10;stroke-dasharray:none"
             d="m 182.36,34.33 0,175.69" /><path
             id="path3092"
             style="fill:none;stroke:#fafafa;stroke-opacity:1;stroke-width:1.07;stroke-linecap:butt;stroke-linejoin:round;stroke-miterlimit:10;stroke-dasharray:none"
             d="m 231.19,34.33 0,175.69" /><path
             id="path3094"
             style="fill:none;stroke:#fafafa;stroke-opacity:1;stroke-width:1.07;stroke-linecap:butt;stroke-linejoin:round;stroke-miterlimit:10;stroke-dasharray:none"
             d="m 280.02,34.33 0,175.69" /><path
             id="path3096"
             style="fill:none;stroke:#fafafa;stroke-opacity:1;stroke-width:1.07;stroke-linecap:butt;stroke-linejoin:round;stroke-miterlimit:10;stroke-dasharray:none"
             d="m 328.86,34.33 0,175.69" /><path
             id="path3098"
             style="fill:none;stroke:#fafafa;stroke-opacity:1;stroke-width:1.07;stroke-linecap:butt;stroke-linejoin:round;stroke-miterlimit:10;stroke-dasharray:none"
             d="m 377.69,34.33 0,175.69" /><path
             id="path3100"
             style="fill:none;stroke:#fafafa;stroke-opacity:1;stroke-width:1.07;stroke-linecap:butt;stroke-linejoin:round;stroke-miterlimit:10;stroke-dasharray:none"
             d="m 426.52,34.33 0,175.69" /><path
             id="path3102"
             style="fill:none;stroke:#fafafa;stroke-opacity:1;stroke-width:1.07;stroke-linecap:butt;stroke-linejoin:round;stroke-miterlimit:10;stroke-dasharray:none"
             d="m 475.35,34.33 0,175.69" /><path
             id="path3104"
             style="fill:none;stroke:#fafafa;stroke-opacity:1;stroke-width:1.07;stroke-linecap:butt;stroke-linejoin:round;stroke-miterlimit:10;stroke-dasharray:none"
             d="m 524.18,34.33 0,175.69" /><path
             id="path3106"
             style="fill:none;stroke:#fafafa;stroke-opacity:1;stroke-width:1.07;stroke-linecap:butt;stroke-linejoin:round;stroke-miterlimit:10;stroke-dasharray:none"
             d="m 573.01,34.33 0,175.69" /><path
             id="path3108"
             style="fill:none;stroke:#fafafa;stroke-opacity:1;stroke-width:1.07;stroke-linecap:butt;stroke-linejoin:round;stroke-miterlimit:10;stroke-dasharray:none"
             d="m 621.85,34.33 0,175.69" /><path
             id="path3110"
             style="fill:none;stroke:#fafafa;stroke-opacity:1;stroke-width:1.07;stroke-linecap:butt;stroke-linejoin:round;stroke-miterlimit:10;stroke-dasharray:none"
             d="m 670.68,34.33 0,175.69" /><path
             id="path3112"
             style="fill:none;stroke:#fafafa;stroke-opacity:1;stroke-width:1.07;stroke-linecap:butt;stroke-linejoin:round;stroke-miterlimit:10;stroke-dasharray:none"
             d="m 695.09,34.33 0,175.69" /><path
             id="path3114"
             style="fill:none;stroke:#e5e5e5;stroke-opacity:1;stroke-width:0.43;stroke-linecap:butt;stroke-linejoin:round;stroke-miterlimit:10;stroke-dasharray:none"
             d="m 40.77,42.31 673.25,0" /><path
             id="path3116"
             style="fill:none;stroke:#e5e5e5;stroke-opacity:1;stroke-width:0.43;stroke-linecap:butt;stroke-linejoin:round;stroke-miterlimit:10;stroke-dasharray:none"
             d="m 40.77,52.67 673.25,0" /><path
             id="path3118"
             style="fill:none;stroke:#e5e5e5;stroke-opacity:1;stroke-width:0.43;stroke-linecap:butt;stroke-linejoin:round;stroke-miterlimit:10;stroke-dasharray:none"
             d="m 40.77,72.52 673.25,0" /><path
             id="path3120"
             style="fill:none;stroke:#e5e5e5;stroke-opacity:1;stroke-width:0.43;stroke-linecap:butt;stroke-linejoin:round;stroke-miterlimit:10;stroke-dasharray:none"
             d="m 40.77,79.43 673.25,0" /><path
             id="path3122"
             style="fill:none;stroke:#e5e5e5;stroke-opacity:1;stroke-width:0.43;stroke-linecap:butt;stroke-linejoin:round;stroke-miterlimit:10;stroke-dasharray:none"
             d="m 40.77,92.38 673.25,0" /><path
             id="path3124"
             style="fill:none;stroke:#e5e5e5;stroke-opacity:1;stroke-width:0.43;stroke-linecap:butt;stroke-linejoin:round;stroke-miterlimit:10;stroke-dasharray:none"
             d="m 40.77,99.28 673.25,0" /><path
             id="path3126"
             style="fill:none;stroke:#e5e5e5;stroke-opacity:1;stroke-width:0.43;stroke-linecap:butt;stroke-linejoin:round;stroke-miterlimit:10;stroke-dasharray:none"
             d="m 40.77,106.19 673.25,0" /><path
             id="path3128"
             style="fill:none;stroke:#e5e5e5;stroke-opacity:1;stroke-width:0.43;stroke-linecap:butt;stroke-linejoin:round;stroke-miterlimit:10;stroke-dasharray:none"
             d="m 40.77,119.14 673.25,0" /><path
             id="path3130"
             style="fill:none;stroke:#e5e5e5;stroke-opacity:1;stroke-width:0.43;stroke-linecap:butt;stroke-linejoin:round;stroke-miterlimit:10;stroke-dasharray:none"
             d="m 40.77,126.04 673.25,0" /><path
             id="path3132"
             style="fill:none;stroke:#e5e5e5;stroke-opacity:1;stroke-width:0.43;stroke-linecap:butt;stroke-linejoin:round;stroke-miterlimit:10;stroke-dasharray:none"
             d="m 40.77,145.89 673.25,0" /><path
             id="path3134"
             style="fill:none;stroke:#e5e5e5;stroke-opacity:1;stroke-width:0.43;stroke-linecap:butt;stroke-linejoin:round;stroke-miterlimit:10;stroke-dasharray:none"
             d="m 40.77,151.94 673.25,0" /><path
             id="path3136"
             style="fill:none;stroke:#e5e5e5;stroke-opacity:1;stroke-width:0.43;stroke-linecap:butt;stroke-linejoin:round;stroke-miterlimit:10;stroke-dasharray:none"
             d="m 40.77,165.75 673.25,0" /><path
             id="path3138"
             style="fill:none;stroke:#e5e5e5;stroke-opacity:1;stroke-width:0.43;stroke-linecap:butt;stroke-linejoin:round;stroke-miterlimit:10;stroke-dasharray:none"
             d="m 40.77,185.6 673.25,0" /><path
             id="path3140"
             style="fill:none;stroke:#e5e5e5;stroke-opacity:1;stroke-width:0.43;stroke-linecap:butt;stroke-linejoin:round;stroke-miterlimit:10;stroke-dasharray:none"
             d="m 40.77,202 673.25,0" /><path
             id="path3142"
             style="fill:none;stroke:#e5e5e5;stroke-opacity:1;stroke-width:0.43;stroke-linecap:butt;stroke-linejoin:round;stroke-miterlimit:10;stroke-dasharray:none"
             d="m 60.28,34.33 0,175.69" /><path
             id="path3144"
             style="fill:none;stroke:#e5e5e5;stroke-opacity:1;stroke-width:0.43;stroke-linecap:butt;stroke-linejoin:round;stroke-miterlimit:10;stroke-dasharray:none"
             d="m 109.11,34.33 0,175.69" /><path
             id="path3146"
             style="fill:none;stroke:#e5e5e5;stroke-opacity:1;stroke-width:0.43;stroke-linecap:butt;stroke-linejoin:round;stroke-miterlimit:10;stroke-dasharray:none"
             d="m 157.95,34.33 0,175.69" /><path
             id="path3148"
             style="fill:none;stroke:#e5e5e5;stroke-opacity:1;stroke-width:0.43;stroke-linecap:butt;stroke-linejoin:round;stroke-miterlimit:10;stroke-dasharray:none"
             d="m 206.78,34.33 0,175.69" /><path
             id="path3150"
             style="fill:none;stroke:#e5e5e5;stroke-opacity:1;stroke-width:0.43;stroke-linecap:butt;stroke-linejoin:round;stroke-miterlimit:10;stroke-dasharray:none"
             d="m 255.61,34.33 0,175.69" /><path
             id="path3152"
             style="fill:none;stroke:#e5e5e5;stroke-opacity:1;stroke-width:0.43;stroke-linecap:butt;stroke-linejoin:round;stroke-miterlimit:10;stroke-dasharray:none"
             d="m 304.44,34.33 0,175.69" /><path
             id="path3154"
             style="fill:none;stroke:#e5e5e5;stroke-opacity:1;stroke-width:0.43;stroke-linecap:butt;stroke-linejoin:round;stroke-miterlimit:10;stroke-dasharray:none"
             d="m 353.27,34.33 0,175.69" /><path
             id="path3156"
             style="fill:none;stroke:#e5e5e5;stroke-opacity:1;stroke-width:0.43;stroke-linecap:butt;stroke-linejoin:round;stroke-miterlimit:10;stroke-dasharray:none"
             d="m 402.1,34.33 0,175.69" /><path
             id="path3158"
             style="fill:none;stroke:#e5e5e5;stroke-opacity:1;stroke-width:0.43;stroke-linecap:butt;stroke-linejoin:round;stroke-miterlimit:10;stroke-dasharray:none"
             d="m 450.94,34.33 0,175.69" /><path
             id="path3160"
             style="fill:none;stroke:#e5e5e5;stroke-opacity:1;stroke-width:0.43;stroke-linecap:butt;stroke-linejoin:round;stroke-miterlimit:10;stroke-dasharray:none"
             d="m 499.77,34.33 0,175.69" /><path
             id="path3162"
             style="fill:none;stroke:#e5e5e5;stroke-opacity:1;stroke-width:0.43;stroke-linecap:butt;stroke-linejoin:round;stroke-miterlimit:10;stroke-dasharray:none"
             d="m 548.6,34.33 0,175.69" /><path
             id="path3164"
             style="fill:none;stroke:#e5e5e5;stroke-opacity:1;stroke-width:0.43;stroke-linecap:butt;stroke-linejoin:round;stroke-miterlimit:10;stroke-dasharray:none"
             d="m 597.43,34.33 0,175.69" /><path
             id="path3166"
             style="fill:none;stroke:#e5e5e5;stroke-opacity:1;stroke-width:0.43;stroke-linecap:butt;stroke-linejoin:round;stroke-miterlimit:10;stroke-dasharray:none"
             d="m 646.26,34.33 0,175.69" /><path
             id="path3168"
             style="fill:none;stroke:#bebebe;stroke-opacity:1;stroke-width:1.07;stroke-linecap:butt;stroke-linejoin:round;stroke-miterlimit:1;stroke-dasharray:none"
             d="m 71.37,42.31 38.56,0 0,0 0.31,0 0,159.73 0.2,0 0,-159.73 0.07,0 0,159.73 1.08,0 0,-16.58 0.42,0 0,16.58 0.88,0 0,-159.73 0.06,0 0,159.73 1.08,0 0,-16.58 0.03,0 0,16.58 1.2,0 0,-56.35 1.24,0 0,-39.78 1.21,0 0,-13.26 3.64,0 0,-13.25 1.24,0 0,-6.63 1.26,0 0,129.27 4.88,0 0,-82.87 1.17,0 0,-13.26 0.37,0 0,0 0.92,0 0,96.13 4.84,0 0,-82.87 1.24,0 0,-76.86 40.09,0 0,159.73 6.29,0 0,-129.27 2.45,0 0,-30.46 4.93,0 0,159.73 1.91,0 0,0 2.95,0 0,-159.73 1.07,0 0,159.73 0.16,0 0,-159.73 0.07,0 0,159.73 4.74,0 0,-56.35 1.25,0 0,-39.78 1.18,0 0,-6.63 1.6,0 0,0 0.86,0 0,-6.63 1.24,0 0,-19.88 1.45,0 0,-30.46 45.71,0 0,159.73 4.86,0 0,-159.73 41.54,0 0,159.73 4.85,0 0,-149.16 1.19,0 0,-10.57 7.87,0 0,159.73 4.88,0 0,-159.73 1.12,0 0,0 0.14,0 0,159.73 1.15,0 0,-129.27 1.78,0 0,129.27 0.17,0 0,-96.13 2.45,0 0,96.13 21.17,0 0,0 22.77,0 0,-129.27 1.24,0 0,129.27 4.84,0 0,-56.35 1.25,0 0,-72.92 1.93,0 0,-30.46 44.25,0 0,159.73 5.59,0 0,-129.27 2.42,0 0,-30.46 6.17,0 0,159.73 6.09,0 0,-159.73 6.13,0 0,159.73 6.07,0 0,-159.73 20.99,0 0,159.73 5.87,0 0,-159.73 63.51,0 0,159.73 4.83,0 0,-159.73 10.3,0 0,159.73 4.84,0 0,-159.73 50.3,0 0,0 0.48,0 0,159.73 2.46,0 0,-159.73 1.14,0 0,159.73 5.18,0 0,-96.13 1.21,0 0,-13.26 2.48,0 0,109.39 4.86,0 0,-82.87 1.23,0 0,82.87 4.87,0 0,-102.76 1.21,0 0,-19.88 1.23,0 0,-6.63 11.01,0 0,129.27 4.84,0 0,-76.24 1.25,0 0,-33.15 1.93,0 0,-50.34 7.6,0 0,159.73 7.28,0 0,-56.35 1.26,0 0,-26.52 2.42,0 0,-26.52 0.35,0 0,0 1.35,0 0,-50.34" /><path
             id="path3170"
             style="fill:none;stroke:#ff0000;stroke-opacity:1;stroke-width:4.27;stroke-linecap:butt;stroke-linejoin:round;stroke-miterlimit:1;stroke-dasharray:none"
             d="m 71.37,105.91 38.56,0 0,-6.63 0.31,0 0,0 0.2,0 0,0 0.07,0 0,0 1.08,0 0,0 0.42,0 0,0 0.88,0 0,0 0.06,0 0,0 1.08,0 0,0 0.03,0 0,0 1.2,0 0,0 1.24,0 0,0 1.21,0 0,0 3.64,0 0,0 1.24,0 0,0 1.26,0 0,0 4.88,0 0,0 1.17,0 0,0 0.37,0 0,-19.88 0.92,0 0,0 4.84,0 0,0 1.24,0 0,0 40.09,0 0,0 6.29,0 0,0 2.45,0 0,0 4.93,0 0,0 1.91,0 0,46.4 2.95,0 0,0 1.07,0 0,0 0.16,0 0,0 0.07,0 0,0 4.74,0 0,0 1.25,0 0,0 1.18,0 0,0 1.6,0 0,-19.89 0.86,0 0,0 1.24,0 0,0 1.45,0 0,0 45.71,0 0,0 4.86,0 0,0 41.54,0 0,0 4.85,0 0,0 1.19,0 0,0 7.87,0 0,0 4.88,0 0,0 1.12,0 0,96.13 0.14,0 0,0 1.15,0 0,0 1.78,0 0,0 0.17,0 0,0 2.45,0 0,0 21.17,0 0,-76.24 22.77,0 0,0 1.24,0 0,0 4.84,0 0,0 1.25,0 0,0 1.93,0 0,0 44.25,0 0,0 5.59,0 0,0 2.42,0 0,0 6.17,0 0,0 6.09,0 0,0 6.13,0 0,0 6.07,0 0,0 20.99,0 0,0 5.87,0 0,0 63.51,0 0,0 4.83,0 0,0 10.3,0 0,0 4.84,0 0,0 50.3,0 0,-26.52 0.48,0 0,0 2.46,0 0,0 1.14,0 0,0 5.18,0 0,0 1.21,0 0,0 2.48,0 0,0 4.86,0 0,0 1.23,0 0,0 4.87,0 0,0 1.21,0 0,0 1.23,0 0,0 11.01,0 0,0 4.84,0 0,0 1.25,0 0,0 1.93,0 0,0 7.6,0 0,0 7.28,0 0,0 1.26,0 0,0 2.42,0 0,0 0.35,0 0,26.52 1.35,0 0,0" /><path
             id="path3172"
             style="fill:none;stroke:#7f7f7f;stroke-opacity:1;stroke-width:1.07;stroke-linecap:round;stroke-linejoin:round;stroke-miterlimit:10;stroke-dasharray:none"
             d="m 40.77,34.33 673.25,0 0,175.7 -673.25,0 0,-175.7 z" /></g></g><g
         id="g3184"><text
           id="text3186"
           transform="matrix(1,0,0,-1,21.77,39.8)"><tspan
             id="tspan3188"
             sodipodi:role="line"
             y="0"
             x="0 3.892 5.838 9.73"
             style="fill:#000000;fill-opacity:1;fill-rule:nonzero;stroke:none;font-family:Helvetica;font-variant:normal;font-weight:normal;font-size:7;writing-mode:lr;-inkscape-font-specification:Helvetica">0.30</tspan></text>
<text
           id="text3190"
           transform="matrix(1,0,0,-1,21.77,50.16)"><tspan
             id="tspan3192"
             sodipodi:role="line"
             y="0"
             x="0 3.892 5.838 9.73"
             style="fill:#000000;fill-opacity:1;fill-rule:nonzero;stroke:none;font-family:Helvetica;font-variant:normal;font-weight:normal;font-size:7;writing-mode:lr;-inkscape-font-specification:Helvetica">0.42</tspan></text>
<text
           id="text3194"
           transform="matrix(1,0,0,-1,21.77,70.01)"><tspan
             id="tspan3196"
             sodipodi:role="line"
             y="0"
             x="0 3.892 5.838 9.73"
             style="fill:#000000;fill-opacity:1;fill-rule:nonzero;stroke:none;font-family:Helvetica;font-variant:normal;font-weight:normal;font-size:7;writing-mode:lr;-inkscape-font-specification:Helvetica">0.65</tspan></text>
<text
           id="text3198"
           transform="matrix(1,0,0,-1,21.77,76.92)"><tspan
             id="tspan3200"
             sodipodi:role="line"
             y="0"
             x="0 3.892 5.838 9.73"
             style="fill:#000000;fill-opacity:1;fill-rule:nonzero;stroke:none;font-family:Helvetica;font-variant:normal;font-weight:normal;font-size:7;writing-mode:lr;-inkscape-font-specification:Helvetica">0.73</tspan></text>
<text
           id="text3202"
           transform="matrix(1,0,0,-1,21.77,89.86)"><tspan
             id="tspan3204"
             sodipodi:role="line"
             y="0"
             x="0 3.892 5.838 9.73"
             style="fill:#000000;fill-opacity:1;fill-rule:nonzero;stroke:none;font-family:Helvetica;font-variant:normal;font-weight:normal;font-size:7;writing-mode:lr;-inkscape-font-specification:Helvetica">0.88</tspan></text>
<text
           id="text3206"
           transform="matrix(1,0,0,-1,21.77,96.77)"><tspan
             id="tspan3208"
             sodipodi:role="line"
             y="0"
             x="0 3.892 5.838 9.73"
             style="fill:#000000;fill-opacity:1;fill-rule:nonzero;stroke:none;font-family:Helvetica;font-variant:normal;font-weight:normal;font-size:7;writing-mode:lr;-inkscape-font-specification:Helvetica">0.96</tspan></text>
<text
           id="text3210"
           transform="matrix(1,0,0,-1,21.77,103.68)"><tspan
             id="tspan3212"
             sodipodi:role="line"
             y="0"
             x="0 3.892 5.838 9.73"
             style="fill:#000000;fill-opacity:1;fill-rule:nonzero;stroke:none;font-family:Helvetica;font-variant:normal;font-weight:normal;font-size:7;writing-mode:lr;-inkscape-font-specification:Helvetica">1.04</tspan></text>
<text
           id="text3214"
           transform="matrix(1,0,0,-1,21.77,116.62)"><tspan
             id="tspan3216"
             sodipodi:role="line"
             y="0"
             x="0 3.892 5.838 9.73"
             style="fill:#000000;fill-opacity:1;fill-rule:nonzero;stroke:none;font-family:Helvetica;font-variant:normal;font-weight:normal;font-size:7;writing-mode:lr;-inkscape-font-specification:Helvetica">1.19</tspan></text>
<text
           id="text3218"
           transform="matrix(1,0,0,-1,21.77,123.53)"><tspan
             id="tspan3220"
             sodipodi:role="line"
             y="0"
             x="0 3.892 5.838 9.73"
             style="fill:#000000;fill-opacity:1;fill-rule:nonzero;stroke:none;font-family:Helvetica;font-variant:normal;font-weight:normal;font-size:7;writing-mode:lr;-inkscape-font-specification:Helvetica">1.27</tspan></text>
<text
           id="text3222"
           transform="matrix(1,0,0,-1,21.77,143.38)"><tspan
             id="tspan3224"
             sodipodi:role="line"
             y="0"
             x="0 3.892 5.838 9.73"
             style="fill:#000000;fill-opacity:1;fill-rule:nonzero;stroke:none;font-family:Helvetica;font-variant:normal;font-weight:normal;font-size:7;writing-mode:lr;-inkscape-font-specification:Helvetica">1.50</tspan></text>
<text
           id="text3226"
           transform="matrix(1,0,0,-1,21.77,149.42)"><tspan
             id="tspan3228"
             sodipodi:role="line"
             y="0"
             x="0 3.892 5.838 9.73"
             style="fill:#000000;fill-opacity:1;fill-rule:nonzero;stroke:none;font-family:Helvetica;font-variant:normal;font-weight:normal;font-size:7;writing-mode:lr;-inkscape-font-specification:Helvetica">1.57</tspan></text>
<text
           id="text3230"
           transform="matrix(1,0,0,-1,21.77,163.23)"><tspan
             id="tspan3232"
             sodipodi:role="line"
             y="0"
             x="0 3.892 5.838 9.73"
             style="fill:#000000;fill-opacity:1;fill-rule:nonzero;stroke:none;font-family:Helvetica;font-variant:normal;font-weight:normal;font-size:7;writing-mode:lr;-inkscape-font-specification:Helvetica">1.73</tspan></text>
<text
           id="text3234"
           transform="matrix(1,0,0,-1,21.77,183.09)"><tspan
             id="tspan3236"
             sodipodi:role="line"
             y="0"
             x="0 3.892 5.838 9.73"
             style="fill:#000000;fill-opacity:1;fill-rule:nonzero;stroke:none;font-family:Helvetica;font-variant:normal;font-weight:normal;font-size:7;writing-mode:lr;-inkscape-font-specification:Helvetica">1.96</tspan></text>
<text
           id="text3238"
           transform="matrix(1,0,0,-1,21.77,199.49)"><tspan
             id="tspan3240"
             sodipodi:role="line"
             y="0"
             x="0 3.892 5.838 9.73"
             style="fill:#000000;fill-opacity:1;fill-rule:nonzero;stroke:none;font-family:Helvetica;font-variant:normal;font-weight:normal;font-size:7;writing-mode:lr;-inkscape-font-specification:Helvetica">2.15</tspan></text>
</g><g
         id="g3244"><path
           id="path3246"
           style="fill:none;stroke:#000000;stroke-opacity:1;stroke-width:1.07;stroke-linecap:butt;stroke-linejoin:round;stroke-miterlimit:10;stroke-dasharray:none"
           d="m 37.78,42.31 2.99,0" /><path
           id="path3248"
           style="fill:none;stroke:#000000;stroke-opacity:1;stroke-width:1.07;stroke-linecap:butt;stroke-linejoin:round;stroke-miterlimit:10;stroke-dasharray:none"
           d="m 37.78,52.67 2.99,0" /><path
           id="path3250"
           style="fill:none;stroke:#000000;stroke-opacity:1;stroke-width:1.07;stroke-linecap:butt;stroke-linejoin:round;stroke-miterlimit:10;stroke-dasharray:none"
           d="m 37.78,72.52 2.99,0" /><path
           id="path3252"
           style="fill:none;stroke:#000000;stroke-opacity:1;stroke-width:1.07;stroke-linecap:butt;stroke-linejoin:round;stroke-miterlimit:10;stroke-dasharray:none"
           d="m 37.78,79.43 2.99,0" /><path
           id="path3254"
           style="fill:none;stroke:#000000;stroke-opacity:1;stroke-width:1.07;stroke-linecap:butt;stroke-linejoin:round;stroke-miterlimit:10;stroke-dasharray:none"
           d="m 37.78,92.38 2.99,0" /><path
           id="path3256"
           style="fill:none;stroke:#000000;stroke-opacity:1;stroke-width:1.07;stroke-linecap:butt;stroke-linejoin:round;stroke-miterlimit:10;stroke-dasharray:none"
           d="m 37.78,99.28 2.99,0" /><path
           id="path3258"
           style="fill:none;stroke:#000000;stroke-opacity:1;stroke-width:1.07;stroke-linecap:butt;stroke-linejoin:round;stroke-miterlimit:10;stroke-dasharray:none"
           d="m 37.78,106.19 2.99,0" /><path
           id="path3260"
           style="fill:none;stroke:#000000;stroke-opacity:1;stroke-width:1.07;stroke-linecap:butt;stroke-linejoin:round;stroke-miterlimit:10;stroke-dasharray:none"
           d="m 37.78,119.14 2.99,0" /><path
           id="path3262"
           style="fill:none;stroke:#000000;stroke-opacity:1;stroke-width:1.07;stroke-linecap:butt;stroke-linejoin:round;stroke-miterlimit:10;stroke-dasharray:none"
           d="m 37.78,126.04 2.99,0" /><path
           id="path3264"
           style="fill:none;stroke:#000000;stroke-opacity:1;stroke-width:1.07;stroke-linecap:butt;stroke-linejoin:round;stroke-miterlimit:10;stroke-dasharray:none"
           d="m 37.78,145.89 2.99,0" /><path
           id="path3266"
           style="fill:none;stroke:#000000;stroke-opacity:1;stroke-width:1.07;stroke-linecap:butt;stroke-linejoin:round;stroke-miterlimit:10;stroke-dasharray:none"
           d="m 37.78,151.94 2.99,0" /><path
           id="path3268"
           style="fill:none;stroke:#000000;stroke-opacity:1;stroke-width:1.07;stroke-linecap:butt;stroke-linejoin:round;stroke-miterlimit:10;stroke-dasharray:none"
           d="m 37.78,165.75 2.99,0" /><path
           id="path3270"
           style="fill:none;stroke:#000000;stroke-opacity:1;stroke-width:1.07;stroke-linecap:butt;stroke-linejoin:round;stroke-miterlimit:10;stroke-dasharray:none"
           d="m 37.78,185.6 2.99,0" /><path
           id="path3272"
           style="fill:none;stroke:#000000;stroke-opacity:1;stroke-width:1.07;stroke-linecap:butt;stroke-linejoin:round;stroke-miterlimit:10;stroke-dasharray:none"
           d="m 37.78,202 2.99,0" /></g><g
         id="g3288"><path
           id="path3290"
           style="fill:none;stroke:#000000;stroke-opacity:1;stroke-width:1.07;stroke-linecap:butt;stroke-linejoin:round;stroke-miterlimit:10;stroke-dasharray:none"
           d="m 60.28,31.34 0,2.99" /><path
           id="path3292"
           style="fill:none;stroke:#000000;stroke-opacity:1;stroke-width:1.07;stroke-linecap:butt;stroke-linejoin:round;stroke-miterlimit:10;stroke-dasharray:none"
           d="m 109.11,31.34 0,2.99" /><path
           id="path3294"
           style="fill:none;stroke:#000000;stroke-opacity:1;stroke-width:1.07;stroke-linecap:butt;stroke-linejoin:round;stroke-miterlimit:10;stroke-dasharray:none"
           d="m 157.95,31.34 0,2.99" /><path
           id="path3296"
           style="fill:none;stroke:#000000;stroke-opacity:1;stroke-width:1.07;stroke-linecap:butt;stroke-linejoin:round;stroke-miterlimit:10;stroke-dasharray:none"
           d="m 206.78,31.34 0,2.99" /><path
           id="path3298"
           style="fill:none;stroke:#000000;stroke-opacity:1;stroke-width:1.07;stroke-linecap:butt;stroke-linejoin:round;stroke-miterlimit:10;stroke-dasharray:none"
           d="m 255.61,31.34 0,2.99" /><path
           id="path3300"
           style="fill:none;stroke:#000000;stroke-opacity:1;stroke-width:1.07;stroke-linecap:butt;stroke-linejoin:round;stroke-miterlimit:10;stroke-dasharray:none"
           d="m 304.44,31.34 0,2.99" /><path
           id="path3302"
           style="fill:none;stroke:#000000;stroke-opacity:1;stroke-width:1.07;stroke-linecap:butt;stroke-linejoin:round;stroke-miterlimit:10;stroke-dasharray:none"
           d="m 353.27,31.34 0,2.99" /><path
           id="path3304"
           style="fill:none;stroke:#000000;stroke-opacity:1;stroke-width:1.07;stroke-linecap:butt;stroke-linejoin:round;stroke-miterlimit:10;stroke-dasharray:none"
           d="m 402.1,31.34 0,2.99" /><path
           id="path3306"
           style="fill:none;stroke:#000000;stroke-opacity:1;stroke-width:1.07;stroke-linecap:butt;stroke-linejoin:round;stroke-miterlimit:10;stroke-dasharray:none"
           d="m 450.94,31.34 0,2.99" /><path
           id="path3308"
           style="fill:none;stroke:#000000;stroke-opacity:1;stroke-width:1.07;stroke-linecap:butt;stroke-linejoin:round;stroke-miterlimit:10;stroke-dasharray:none"
           d="m 499.77,31.34 0,2.99" /><path
           id="path3310"
           style="fill:none;stroke:#000000;stroke-opacity:1;stroke-width:1.07;stroke-linecap:butt;stroke-linejoin:round;stroke-miterlimit:10;stroke-dasharray:none"
           d="m 548.6,31.34 0,2.99" /><path
           id="path3312"
           style="fill:none;stroke:#000000;stroke-opacity:1;stroke-width:1.07;stroke-linecap:butt;stroke-linejoin:round;stroke-miterlimit:10;stroke-dasharray:none"
           d="m 597.43,31.34 0,2.99" /><path
           id="path3314"
           style="fill:none;stroke:#000000;stroke-opacity:1;stroke-width:1.07;stroke-linecap:butt;stroke-linejoin:round;stroke-miterlimit:10;stroke-dasharray:none"
           d="m 646.26,31.34 0,2.99" /></g><g
         id="g3318"><text
           id="text3320"
           transform="matrix(1,0,0,-1,51.94,21.77)"><tspan
             id="tspan3322"
             sodipodi:role="line"
             y="0"
             x="0 5.56 11.12"
             style="fill:#000000;fill-opacity:1;fill-rule:nonzero;stroke:none;font-family:Helvetica;font-variant:normal;font-weight:normal;font-size:10;writing-mode:lr;-inkscape-font-specification:Helvetica">298</tspan></text>
<text
           id="text3324"
           transform="matrix(1,0,0,-1,100.77,21.77)"><tspan
             id="tspan3326"
             sodipodi:role="line"
             y="0"
             x="0 5.56 11.12"
             style="fill:#000000;fill-opacity:1;fill-rule:nonzero;stroke:none;font-family:Helvetica;font-variant:normal;font-weight:normal;font-size:10;writing-mode:lr;-inkscape-font-specification:Helvetica">300</tspan></text>
<text
           id="text3328"
           transform="matrix(1,0,0,-1,149.61,21.77)"><tspan
             id="tspan3330"
             sodipodi:role="line"
             y="0"
             x="0 5.56 11.12"
             style="fill:#000000;fill-opacity:1;fill-rule:nonzero;stroke:none;font-family:Helvetica;font-variant:normal;font-weight:normal;font-size:10;writing-mode:lr;-inkscape-font-specification:Helvetica">302</tspan></text>
<text
           id="text3332"
           transform="matrix(1,0,0,-1,198.44,21.77)"><tspan
             id="tspan3334"
             sodipodi:role="line"
             y="0"
             x="0 5.56 11.12"
             style="fill:#000000;fill-opacity:1;fill-rule:nonzero;stroke:none;font-family:Helvetica;font-variant:normal;font-weight:normal;font-size:10;writing-mode:lr;-inkscape-font-specification:Helvetica">304</tspan></text>
<text
           id="text3336"
           transform="matrix(1,0,0,-1,247.27,21.77)"><tspan
             id="tspan3338"
             sodipodi:role="line"
             y="0"
             x="0 5.56 11.12"
             style="fill:#000000;fill-opacity:1;fill-rule:nonzero;stroke:none;font-family:Helvetica;font-variant:normal;font-weight:normal;font-size:10;writing-mode:lr;-inkscape-font-specification:Helvetica">306</tspan></text>
<text
           id="text3340"
           transform="matrix(1,0,0,-1,296.1,21.77)"><tspan
             id="tspan3342"
             sodipodi:role="line"
             y="0"
             x="0 5.56 11.12"
             style="fill:#000000;fill-opacity:1;fill-rule:nonzero;stroke:none;font-family:Helvetica;font-variant:normal;font-weight:normal;font-size:10;writing-mode:lr;-inkscape-font-specification:Helvetica">308</tspan></text>
<text
           id="text3344"
           transform="matrix(1,0,0,-1,344.93,21.77)"><tspan
             id="tspan3346"
             sodipodi:role="line"
             y="0"
             x="0 5.56 11.12"
             style="fill:#000000;fill-opacity:1;fill-rule:nonzero;stroke:none;font-family:Helvetica;font-variant:normal;font-weight:normal;font-size:10;writing-mode:lr;-inkscape-font-specification:Helvetica">310</tspan></text>
<text
           id="text3348"
           transform="matrix(1,0,0,-1,393.76,21.77)"><tspan
             id="tspan3350"
             sodipodi:role="line"
             y="0"
             x="0 5.56 11.12"
             style="fill:#000000;fill-opacity:1;fill-rule:nonzero;stroke:none;font-family:Helvetica;font-variant:normal;font-weight:normal;font-size:10;writing-mode:lr;-inkscape-font-specification:Helvetica">312</tspan></text>
<text
           id="text3352"
           transform="matrix(1,0,0,-1,442.6,21.77)"><tspan
             id="tspan3354"
             sodipodi:role="line"
             y="0"
             x="0 5.56 11.12"
             style="fill:#000000;fill-opacity:1;fill-rule:nonzero;stroke:none;font-family:Helvetica;font-variant:normal;font-weight:normal;font-size:10;writing-mode:lr;-inkscape-font-specification:Helvetica">314</tspan></text>
<text
           id="text3356"
           transform="matrix(1,0,0,-1,491.43,21.77)"><tspan
             id="tspan3358"
             sodipodi:role="line"
             y="0"
             x="0 5.56 11.12"
             style="fill:#000000;fill-opacity:1;fill-rule:nonzero;stroke:none;font-family:Helvetica;font-variant:normal;font-weight:normal;font-size:10;writing-mode:lr;-inkscape-font-specification:Helvetica">316</tspan></text>
<text
           id="text3360"
           transform="matrix(1,0,0,-1,540.26,21.77)"><tspan
             id="tspan3362"
             sodipodi:role="line"
             y="0"
             x="0 5.56 11.12"
             style="fill:#000000;fill-opacity:1;fill-rule:nonzero;stroke:none;font-family:Helvetica;font-variant:normal;font-weight:normal;font-size:10;writing-mode:lr;-inkscape-font-specification:Helvetica">318</tspan></text>
<text
           id="text3364"
           transform="matrix(1,0,0,-1,589.09,21.77)"><tspan
             id="tspan3366"
             sodipodi:role="line"
             y="0"
             x="0 5.56 11.12"
             style="fill:#000000;fill-opacity:1;fill-rule:nonzero;stroke:none;font-family:Helvetica;font-variant:normal;font-weight:normal;font-size:10;writing-mode:lr;-inkscape-font-specification:Helvetica">320</tspan></text>
<text
           id="text3368"
           transform="matrix(1,0,0,-1,637.92,21.77)"><tspan
             id="tspan3370"
             sodipodi:role="line"
             y="0"
             x="0 5.56 11.12"
             style="fill:#000000;fill-opacity:1;fill-rule:nonzero;stroke:none;font-family:Helvetica;font-variant:normal;font-weight:normal;font-size:10;writing-mode:lr;-inkscape-font-specification:Helvetica">322</tspan></text>
</g><g
         id="g3378"><text
           id="text3380"
           transform="matrix(1,0,0,-1,352.06,8.37)"><tspan
             id="tspan3382"
             sodipodi:role="line"
             y="0"
             x="0 7.332 9.996 19.992 26.664 30 32.664 39.336 42.672"
             style="fill:#000000;fill-opacity:1;fill-rule:nonzero;stroke:none;font-family:Helvetica;font-variant:normal;font-weight:normal;font-size:12;writing-mode:lr;-inkscape-font-specification:Helvetica">Time in S</tspan></text>
</g><g
         id="g3386"><text
           id="text3388"
           transform="matrix(0,1,1,0,16.98,73.83)"><tspan
             id="tspan3390"
             sodipodi:role="line"
             y="0"
             x="0 7.332 11.328 18 24.672 31.344 38.016 44.688 50.688 56.688 60.024 62.688 69.36 72.696 82.032 90.696"
             style="fill:#000000;fill-opacity:1;fill-rule:nonzero;stroke:none;font-family:Helvetica;font-variant:normal;font-weight:normal;font-size:12;writing-mode:lr;-inkscape-font-specification:Helvetica">Frequency in GHz</tspan></text>
</g><g
         id="g3398"><path
           id="path3400"
           style="fill:#ffffff;fill-opacity:1;fill-rule:nonzero;stroke:none"
           d="m 69.39,146.88 77.41,0 0,56 -77.41,0 0,-56 z" /></g><g
         id="g3404"><text
           id="text3406"
           transform="matrix(1,0,0,-1,73.64,190.02)"><tspan
             id="tspan3408"
             sodipodi:role="line"
             y="0"
             x="0 5.892 12.564 18.564 25.236 31.908 34.572 41.244 47.916"
             style="fill:#000000;fill-opacity:1;fill-rule:nonzero;stroke:none;font-family:Helvetica;font-variant:normal;font-weight:normal;font-size:12;writing-mode:lr;-inkscape-font-specification:Helvetica">Technique</tspan></text>
</g><g
         id="g3412"><path
           id="path3414"
           style="fill:#ffffff;fill-opacity:1;fill-rule:nonzero;stroke:#cccccc;stroke-opacity:1;stroke-width:1.07;stroke-linecap:round;stroke-linejoin:round;stroke-miterlimit:10;stroke-dasharray:none"
           d="m 73.64,168.42 17.28,0 0,17.28 -17.28,0 0,-17.28 z" /></g><g
         id="g3418"><path
           id="path3420"
           style="fill:none;stroke:#bebebe;stroke-opacity:1;stroke-width:1.07;stroke-linecap:butt;stroke-linejoin:round;stroke-miterlimit:10;stroke-dasharray:none"
           d="m 75.37,177.06 13.82,0" /></g><g
         id="g3424"><path
           id="path3426"
           style="fill:#ffffff;fill-opacity:1;fill-rule:nonzero;stroke:#cccccc;stroke-opacity:1;stroke-width:1.07;stroke-linecap:round;stroke-linejoin:round;stroke-miterlimit:10;stroke-dasharray:none"
           d="m 73.64,151.14 17.28,0 0,17.28 -17.28,0 0,-17.28 z" /></g><g
         id="g3430"><path
           id="path3432"
           style="fill:none;stroke:#ff0000;stroke-opacity:1;stroke-width:4.27;stroke-linecap:butt;stroke-linejoin:round;stroke-miterlimit:10;stroke-dasharray:none"
           d="m 75.37,159.78 13.82,0" /></g><g
         id="g3436"><text
           id="text3438"
           transform="matrix(1,0,0,-1,93.08,173.47)"><tspan
             id="tspan3440"
             sodipodi:role="line"
             y="0"
             x="0 7.78 13.34 18.9 24.46 32.79 38.35 43.91"
             style="fill:#000000;fill-opacity:1;fill-rule:nonzero;stroke:none;font-family:Helvetica;font-variant:normal;font-weight:normal;font-size:10;writing-mode:lr;-inkscape-font-specification:Helvetica">Ondemand</tspan></text>
</g><g
         id="g3444"><text
           id="text3446"
           transform="matrix(1,0,0,-1,93.08,156.19)"><tspan
             id="tspan3448"
             sodipodi:role="line"
             y="0"
             x="0 7.78 11.01 16.57 21.57 23.79"
             style="fill:#000000;fill-opacity:1;fill-rule:nonzero;stroke:none;font-family:Helvetica;font-variant:normal;font-weight:normal;font-size:10;writing-mode:lr;-inkscape-font-specification:Helvetica">Oracle</tspan></text>
</g></g><g
       id="g3450" /><g
       id="g3452" /><g
       id="g3454" /><g
       id="g3456" /><g
       id="g3458" /><g
       id="g3460" /><text
       xml:space="preserve"
       style="font-size:14.39999962px;font-style:normal;font-variant:normal;font-weight:bold;font-stretch:normal;line-height:125%;letter-spacing:0px;word-spacing:0px;fill:#000000;fill-opacity:1;stroke:none;font-family:Arial;-inkscape-font-specification:Arial Bold"
       x="92.769615"
       y="-87.918655"
       id="text3462"
       sodipodi:linespacing="125%"
       transform="scale(1,-1)"><tspan
         sodipodi:role="line"
         id="tspan3464"
         x="92.769615"
         y="-87.918655">IR</tspan></text>
<text
       xml:space="preserve"
       style="font-size:14.39999962px;font-style:normal;font-variant:normal;font-weight:bold;font-stretch:normal;line-height:125%;letter-spacing:0px;word-spacing:0px;fill:#000000;fill-opacity:1;stroke:none;font-family:Arial;-inkscape-font-specification:Arial Bold"
       x="135.81209"
       y="-98.021339"
       id="text3466"
       sodipodi:linespacing="125%"
       transform="scale(1,-1)"><tspan
         sodipodi:role="line"
         id="tspan3468"
         x="135.81209"
         y="-98.021339">IS</tspan></text>
<text
       xml:space="preserve"
       style="font-size:14.39999962px;font-style:normal;font-variant:normal;font-weight:bold;font-stretch:normal;line-height:125%;letter-spacing:0px;word-spacing:0px;fill:#000000;fill-opacity:1;stroke:none;font-family:Arial;-inkscape-font-specification:Arial Bold"
       x="178.2935"
       y="-131.09521"
       id="text3462-3"
       sodipodi:linespacing="125%"
       transform="scale(1,-1)"><tspan
         sodipodi:role="line"
         id="tspan3464-6"
         x="178.2935"
         y="-131.09521">IR</tspan></text>
<text
       xml:space="preserve"
       style="font-size:14.39999962px;font-style:normal;font-variant:normal;font-weight:bold;font-stretch:normal;line-height:125%;letter-spacing:0px;word-spacing:0px;fill:#000000;fill-opacity:1;stroke:none;font-family:Arial;-inkscape-font-specification:Arial Bold"
       x="203.95454"
       y="-131.09872"
       id="text3466-7"
       sodipodi:linespacing="125%"
       transform="scale(1,-1)"><tspan
         sodipodi:role="line"
         id="tspan3468-5"
         x="203.95454"
         y="-131.09872">IS</tspan></text>
<text
       xml:space="preserve"
       style="font-size:14.39999962px;font-style:normal;font-variant:normal;font-weight:bold;font-stretch:normal;line-height:125%;letter-spacing:0px;word-spacing:0px;fill:#000000;fill-opacity:1;stroke:none;font-family:Arial;-inkscape-font-specification:Arial Bold"
       x="301.02673"
       y="-188.5125"
       id="text3462-3-3"
       sodipodi:linespacing="125%"
       transform="scale(1,-1)"><tspan
         sodipodi:role="line"
         id="tspan3464-6-5"
         x="301.02673"
         y="-188.5125">IR</tspan></text>
<text
       xml:space="preserve"
       style="font-size:14.39999962px;font-style:normal;font-variant:normal;font-weight:bold;font-stretch:normal;line-height:125%;letter-spacing:0px;word-spacing:0px;fill:#000000;fill-opacity:1;stroke:none;font-family:Arial;-inkscape-font-specification:Arial Bold"
       x="353.42087"
       y="-189.70415"
       id="text3466-7-6"
       sodipodi:linespacing="125%"
       transform="scale(1,-1)"><tspan
         sodipodi:role="line"
         id="tspan3468-5-2"
         x="353.42087"
         y="-189.70415">IS</tspan></text>
<text
       xml:space="preserve"
       style="font-size:14.39999962px;font-style:normal;font-variant:normal;font-weight:bold;font-stretch:normal;line-height:125%;letter-spacing:0px;word-spacing:0px;fill:#000000;fill-opacity:1;stroke:none;font-family:Arial;-inkscape-font-specification:Arial Bold"
       x="604.59589"
       y="-132.28336"
       id="text3462-3-9"
       sodipodi:linespacing="125%"
       transform="scale(1,-1)"><tspan
         sodipodi:role="line"
         id="tspan3464-6-1"
         x="604.59589"
         y="-132.28336">IR</tspan></text>
<text
       xml:space="preserve"
       style="font-size:14.39999962px;font-style:normal;font-variant:normal;font-weight:bold;font-stretch:normal;line-height:125%;letter-spacing:0px;word-spacing:0px;fill:#000000;fill-opacity:1;stroke:none;font-family:Arial;-inkscape-font-specification:Arial Bold"
       x="671.84167"
       y="-132.28688"
       id="text3466-7-2"
       sodipodi:linespacing="125%"
       transform="scale(1,-1)"><tspan
         sodipodi:role="line"
         id="tspan3468-5-7"
         x="671.84167"
         y="-132.28688">IS</tspan></text>
</g></svg>